<?xml version="1.0" standalone="no"?><!DOCTYPE svg PUBLIC "-//W3C//DTD SVG 1.1//EN" "http://www.w3.org/Graphics/SVG/1.1/DTD/svg11.dtd"><svg t="1623388338521" class="icon" viewBox="0 0 1024 1024" version="1.1" xmlns="http://www.w3.org/2000/svg" p-id="28451" xmlns:xlink="http://www.w3.org/1999/xlink" width="20" height="20"><defs><style type="text/css"></style></defs><path d="M354.8 874.8c-26.8-44-40.8-78.8-47.2-111.6-4.8-24-5.2-46-4-70-29.2 12-59.2 24.4-89.6 37.2-34.8 14.8-68.8 30-102.4 45.6-6.4 28.4-11.6 53.2-15.6 78-3.6 22-6 44.4-7.6 69.2 90.4 2 158 18 223.6 34 45.6 11.2 90.4 21.6 140.4 26.8 6.4-34 22.8-123.2 30.4-130.8v-15.2c-6.8-8.4-10.4-15.2-14-22.8-5.2 3.2-10.8 6.4-16.4 10-28.8 18-58.4 38.8-73.6 52.8-6.4 6-16.4 5.6-22.4-0.8-0.4-0.8-1.2-1.6-1.6-2.4zM329.6 241.6c-14 54.4-15.6 121.2-4.4 156-4.4-1.2-17.6-4-22-5.2-3.2-14.8-8.8-43.6-15.2-64.8-6.8-2.8-16.8 0.4-20 6.4-6.8 12.8 6.4 56.4 12.4 68.4 7.2 15.6 18.4 30.8 32.8 39.2 8 4.4 25.6-9.6 32.8 6.4 22.4 49.2 60 106 106 136 32 20.8 88 20.8 120 0 46.4-30.4 83.2-86.4 106-136 7.2-16 25.2-2 32.8-6.4 14.4-8 25.6-23.6 32.8-39.2 5.6-12 19.2-55.2 12.4-68.4-3.2-6-13.2-9.2-20-6.4-6.4 21.2-12 50-14.8 64.4-4.4 1.2-17.2 4.4-21.6 5.2 17.6-56 4.8-195.6-46-232.4-92-5.6-133.6 79.6-324 76.8zM274.8 296.8c-2.8-44-4.4-74.8-8.8-114.8-2-19.6 8.4-37.2 17.6-53.6C330 41.2 412.8 4.8 512 4.8c92.8 0 185.2 27.6 185.6 82.8 20.4 4.8 32.8 22 42.8 40.4 8.8 16.8 19.6 34.4 17.6 53.6-4.4 40-6 70.8-8.8 114.8 14.8 0.8 28 9.6 34.8 22.8 13.2 25.2-1.2 75.2-11.6 96.8-11.2 24-27.6 42.8-46 53.2-8 4.4-16.8 5.6-25.6 4.4-12.8 26-29.6 53.6-49.2 78v45.6c19.6 18.8 44 39.6 62 59.2 37.2 14.8 73.2 30 108.4 44.8 36.4 15.6 73.2 32 110.4 49.2 4.4 2 7.6 6 8.8 10.8 7.2 32.4 13.2 60 17.6 87.6 4.4 28 7.2 56 8.8 89.6v0.8c0 8.8-7.2 16-16 16-94.8 0-165.2 16.8-232.8 33.2-64.8 15.6-127.6 30.8-207.2 30.8s-142.4-15.2-207.2-30.8c-67.6-16.4-137.6-33.2-232.4-33.2h-1.2c-8.8-0.4-15.6-7.6-15.2-16.4 1.2-33.2 4.4-61.6 8.8-89.6 4.4-27.6 10.4-55.2 17.6-87.2 0.8-4.8 4-9.2 9.2-11.6 37.2-17.2 74-33.6 110.4-49.2 34.8-15.2 70.8-30 108.4-44.8C328.4 636.8 352 616 372 597.2v-45.6c-19.6-24.8-36-52-49.2-78-8.8 1.2-17.6 0.4-25.6-4.4-18.4-10.4-34.8-29.6-46-53.2-10.4-21.6-24.8-71.6-11.6-96.8 7.2-13.2 20-21.6 35.2-22.4z m345.2 289.6c-9.6 9.2-20 17.2-30.4 24-23.6 15.6-49.6 20.8-77.6 20.8-28 0-53.6-5.2-77.6-20.8-10.8-6.8-20.8-15.2-30.4-24v50.4c0 15.2 12 31.6 29.6 46.4 22.4 19.2 52.4 34.8 78.4 43.2 26.4-8.4 56.4-24 78.4-43.2 17.2-14.8 29.6-31.2 29.6-46.4v-50.4z m-48.8 398c50.4-5.2 94.8-15.6 140.4-26.8 65.6-16 133.2-32 223.6-34-1.6-25.2-4-47.2-7.6-69.2-4-24.8-9.2-49.6-15.6-78-33.6-15.6-67.6-30.8-102.4-45.6-30.4-13.2-60.4-25.6-89.6-37.6 1.2 23.6 0.8 46-4 70-6.4 32.8-20 67.6-47.2 111.6-4.8 7.6-14.4 10-22 5.2-1.2-0.8-2.4-2-3.6-2.8-15.6-14-44.4-34.4-72.4-51.6-5.6-3.6-11.2-6.8-16.4-10-3.6 7.6-7.2 14.4-14 22.8v15.2c8 7.6 24.4 96.8 30.8 130.8z m116-309.6l-35.2-33.6c-1.6 24.4-18 47.2-40.4 66.8-26.8 23.2-63.6 41.6-94.8 50.8-2.8 0.8-6 0.8-9.2 0-31.2-9.2-68-27.6-94.8-50.8-22.8-19.6-38.8-42.4-40.4-66.8l-35.2 33.6c-2.4 29.2-3.2 55.2 2 82.4 4.8 25.2 14.8 52 33.6 84.8 17.2-13.6 40.8-29.6 63.6-44 28.4-17.6 56.4-32 72-36 2.4-0.8 5.2-0.8 7.6 0 15.6 3.6 44 18.4 72.4 36 22.8 14 46 30 63.6 44 18.8-32.8 28.8-59.6 33.6-84.8 4.8-27.2 4-53.2 1.6-82.4z" fill="#3A6287" p-id="28452"></path></svg>